<mxfile host="Electron" agent="Mozilla/5.0 (Macintosh; Intel Mac OS X 10_15_7) AppleWebKit/537.36 (KHTML, like Gecko) draw.io/24.7.17 Chrome/128.0.6613.36 Electron/32.0.1 Safari/537.36" version="24.7.17" pages="5">
  <diagram name="Overview" id="f_PdxewZoIjAqP8Vr960">
    <mxGraphModel dx="1366" dy="813" grid="1" gridSize="10" guides="1" tooltips="1" connect="1" arrows="1" fold="1" page="1" pageScale="1" pageWidth="827" pageHeight="1169" math="0" shadow="0">
      <root>
        <mxCell id="0" />
        <mxCell id="1" parent="0" />
        <mxCell id="ZbVqvj6ysP3oVHEhS9Jw-7" value="" style="edgeStyle=orthogonalEdgeStyle;rounded=0;orthogonalLoop=1;jettySize=auto;html=1;" edge="1" parent="1" source="ZbVqvj6ysP3oVHEhS9Jw-2" target="ZbVqvj6ysP3oVHEhS9Jw-6">
          <mxGeometry relative="1" as="geometry" />
        </mxCell>
        <mxCell id="ZbVqvj6ysP3oVHEhS9Jw-2" value="start" style="rounded=1;whiteSpace=wrap;html=1;" vertex="1" parent="1">
          <mxGeometry width="120" height="40" as="geometry" />
        </mxCell>
        <mxCell id="ZbVqvj6ysP3oVHEhS9Jw-9" value="" style="edgeStyle=orthogonalEdgeStyle;rounded=0;orthogonalLoop=1;jettySize=auto;html=1;" edge="1" parent="1" source="ZbVqvj6ysP3oVHEhS9Jw-6" target="ZbVqvj6ysP3oVHEhS9Jw-8">
          <mxGeometry relative="1" as="geometry" />
        </mxCell>
        <mxCell id="ZbVqvj6ysP3oVHEhS9Jw-114" style="edgeStyle=orthogonalEdgeStyle;rounded=0;orthogonalLoop=1;jettySize=auto;html=1;exitX=1;exitY=0.5;exitDx=0;exitDy=0;entryX=0.5;entryY=0;entryDx=0;entryDy=0;" edge="1" parent="1" source="ZbVqvj6ysP3oVHEhS9Jw-6" target="ZbVqvj6ysP3oVHEhS9Jw-10">
          <mxGeometry relative="1" as="geometry">
            <Array as="points">
              <mxPoint x="140" y="100" />
              <mxPoint x="140" y="220" />
              <mxPoint x="60" y="220" />
            </Array>
          </mxGeometry>
        </mxCell>
        <mxCell id="ZbVqvj6ysP3oVHEhS9Jw-6" value="setup" style="shape=process;whiteSpace=wrap;html=1;backgroundOutline=1;" vertex="1" parent="1">
          <mxGeometry y="80" width="120" height="40" as="geometry" />
        </mxCell>
        <mxCell id="ZbVqvj6ysP3oVHEhS9Jw-11" value="" style="edgeStyle=orthogonalEdgeStyle;rounded=0;orthogonalLoop=1;jettySize=auto;html=1;" edge="1" parent="1" source="ZbVqvj6ysP3oVHEhS9Jw-8" target="ZbVqvj6ysP3oVHEhS9Jw-10">
          <mxGeometry relative="1" as="geometry" />
        </mxCell>
        <mxCell id="ZbVqvj6ysP3oVHEhS9Jw-8" value="main" style="shape=process;whiteSpace=wrap;html=1;backgroundOutline=1;" vertex="1" parent="1">
          <mxGeometry y="160" width="120" height="40" as="geometry" />
        </mxCell>
        <mxCell id="ZbVqvj6ysP3oVHEhS9Jw-10" value="end" style="rounded=1;whiteSpace=wrap;html=1;" vertex="1" parent="1">
          <mxGeometry y="240" width="120" height="40" as="geometry" />
        </mxCell>
      </root>
    </mxGraphModel>
  </diagram>
  <diagram id="ZwKrwaoqzl_uGnbR_0_3" name="Setup">
    <mxGraphModel dx="1912" dy="1139" grid="1" gridSize="10" guides="1" tooltips="1" connect="1" arrows="1" fold="1" page="1" pageScale="1" pageWidth="827" pageHeight="1169" math="0" shadow="0">
      <root>
        <mxCell id="0" />
        <mxCell id="1" parent="0" />
        <mxCell id="Umm4PGDIliKXAp_M9qsW-1" value="" style="edgeStyle=orthogonalEdgeStyle;rounded=0;orthogonalLoop=1;jettySize=auto;html=1;" edge="1" parent="1" source="Umm4PGDIliKXAp_M9qsW-2" target="Umm4PGDIliKXAp_M9qsW-7">
          <mxGeometry relative="1" as="geometry" />
        </mxCell>
        <mxCell id="Umm4PGDIliKXAp_M9qsW-2" value="setup" style="shape=process;whiteSpace=wrap;html=1;backgroundOutline=1;" vertex="1" parent="1">
          <mxGeometry width="120" height="40" as="geometry" />
        </mxCell>
        <mxCell id="Umm4PGDIliKXAp_M9qsW-3" value="" style="edgeStyle=orthogonalEdgeStyle;rounded=0;orthogonalLoop=1;jettySize=auto;html=1;" edge="1" parent="1" source="Umm4PGDIliKXAp_M9qsW-7" target="Umm4PGDIliKXAp_M9qsW-12">
          <mxGeometry relative="1" as="geometry" />
        </mxCell>
        <mxCell id="Umm4PGDIliKXAp_M9qsW-4" value="Yes" style="edgeLabel;html=1;align=center;verticalAlign=middle;resizable=0;points=[];" vertex="1" connectable="0" parent="Umm4PGDIliKXAp_M9qsW-3">
          <mxGeometry x="-0.15" relative="1" as="geometry">
            <mxPoint as="offset" />
          </mxGeometry>
        </mxCell>
        <mxCell id="Umm4PGDIliKXAp_M9qsW-5" value="" style="edgeStyle=orthogonalEdgeStyle;rounded=0;orthogonalLoop=1;jettySize=auto;html=1;" edge="1" parent="1" source="Umm4PGDIliKXAp_M9qsW-7" target="Umm4PGDIliKXAp_M9qsW-29">
          <mxGeometry relative="1" as="geometry" />
        </mxCell>
        <mxCell id="Umm4PGDIliKXAp_M9qsW-6" value="No" style="edgeLabel;html=1;align=center;verticalAlign=middle;resizable=0;points=[];" vertex="1" connectable="0" parent="Umm4PGDIliKXAp_M9qsW-5">
          <mxGeometry x="-0.3" relative="1" as="geometry">
            <mxPoint as="offset" />
          </mxGeometry>
        </mxCell>
        <mxCell id="Umm4PGDIliKXAp_M9qsW-7" value="Does the database file exist?" style="rhombus;whiteSpace=wrap;html=1;" vertex="1" parent="1">
          <mxGeometry y="80" width="120" height="80" as="geometry" />
        </mxCell>
        <mxCell id="Umm4PGDIliKXAp_M9qsW-8" value="" style="edgeStyle=orthogonalEdgeStyle;rounded=0;orthogonalLoop=1;jettySize=auto;html=1;" edge="1" parent="1" source="Umm4PGDIliKXAp_M9qsW-12" target="Umm4PGDIliKXAp_M9qsW-17">
          <mxGeometry relative="1" as="geometry" />
        </mxCell>
        <mxCell id="Umm4PGDIliKXAp_M9qsW-9" value="Yes" style="edgeLabel;html=1;align=center;verticalAlign=middle;resizable=0;points=[];" vertex="1" connectable="0" parent="Umm4PGDIliKXAp_M9qsW-8">
          <mxGeometry x="-0.15" relative="1" as="geometry">
            <mxPoint x="-2" y="-1" as="offset" />
          </mxGeometry>
        </mxCell>
        <mxCell id="Umm4PGDIliKXAp_M9qsW-10" value="" style="edgeStyle=orthogonalEdgeStyle;rounded=0;orthogonalLoop=1;jettySize=auto;html=1;" edge="1" parent="1" source="Umm4PGDIliKXAp_M9qsW-12" target="Umm4PGDIliKXAp_M9qsW-34">
          <mxGeometry relative="1" as="geometry" />
        </mxCell>
        <mxCell id="Umm4PGDIliKXAp_M9qsW-11" value="No" style="edgeLabel;html=1;align=center;verticalAlign=middle;resizable=0;points=[];" vertex="1" connectable="0" parent="Umm4PGDIliKXAp_M9qsW-10">
          <mxGeometry x="-0.15" y="-1" relative="1" as="geometry">
            <mxPoint as="offset" />
          </mxGeometry>
        </mxCell>
        <mxCell id="Umm4PGDIliKXAp_M9qsW-12" value="Does the database have the bank table" style="rhombus;whiteSpace=wrap;html=1;" vertex="1" parent="1">
          <mxGeometry y="200" width="120" height="80" as="geometry" />
        </mxCell>
        <mxCell id="Umm4PGDIliKXAp_M9qsW-13" value="" style="edgeStyle=orthogonalEdgeStyle;rounded=0;orthogonalLoop=1;jettySize=auto;html=1;" edge="1" parent="1" source="Umm4PGDIliKXAp_M9qsW-17" target="Umm4PGDIliKXAp_M9qsW-22">
          <mxGeometry relative="1" as="geometry" />
        </mxCell>
        <mxCell id="Umm4PGDIliKXAp_M9qsW-14" value="Yes" style="edgeLabel;html=1;align=center;verticalAlign=middle;resizable=0;points=[];" vertex="1" connectable="0" parent="Umm4PGDIliKXAp_M9qsW-13">
          <mxGeometry x="-0.2" y="1" relative="1" as="geometry">
            <mxPoint x="12" y="-11" as="offset" />
          </mxGeometry>
        </mxCell>
        <mxCell id="Umm4PGDIliKXAp_M9qsW-15" value="" style="edgeStyle=orthogonalEdgeStyle;rounded=0;orthogonalLoop=1;jettySize=auto;html=1;entryX=0;entryY=0.5;entryDx=0;entryDy=0;" edge="1" parent="1" source="Umm4PGDIliKXAp_M9qsW-17" target="Umm4PGDIliKXAp_M9qsW-39">
          <mxGeometry relative="1" as="geometry">
            <mxPoint x="160" y="460" as="targetPoint" />
          </mxGeometry>
        </mxCell>
        <mxCell id="Umm4PGDIliKXAp_M9qsW-16" value="No" style="edgeLabel;html=1;align=center;verticalAlign=middle;resizable=0;points=[];" vertex="1" connectable="0" parent="Umm4PGDIliKXAp_M9qsW-15">
          <mxGeometry x="-0.15" y="-2" relative="1" as="geometry">
            <mxPoint x="-2" y="-3" as="offset" />
          </mxGeometry>
        </mxCell>
        <mxCell id="Umm4PGDIliKXAp_M9qsW-17" value="Does the database bank table have the right data?" style="rhombus;whiteSpace=wrap;html=1;" vertex="1" parent="1">
          <mxGeometry y="380" width="120" height="80" as="geometry" />
        </mxCell>
        <mxCell id="Umm4PGDIliKXAp_M9qsW-18" value="" style="edgeStyle=orthogonalEdgeStyle;rounded=0;orthogonalLoop=1;jettySize=auto;html=1;" edge="1" parent="1" source="Umm4PGDIliKXAp_M9qsW-22" target="Umm4PGDIliKXAp_M9qsW-27">
          <mxGeometry relative="1" as="geometry" />
        </mxCell>
        <mxCell id="Umm4PGDIliKXAp_M9qsW-19" value="Yes" style="edgeLabel;html=1;align=center;verticalAlign=middle;resizable=0;points=[];" vertex="1" connectable="0" parent="Umm4PGDIliKXAp_M9qsW-18">
          <mxGeometry x="-0.3" y="-1" relative="1" as="geometry">
            <mxPoint x="1" y="18" as="offset" />
          </mxGeometry>
        </mxCell>
        <mxCell id="Umm4PGDIliKXAp_M9qsW-20" value="" style="edgeStyle=orthogonalEdgeStyle;rounded=0;orthogonalLoop=1;jettySize=auto;html=1;" edge="1" parent="1" source="Umm4PGDIliKXAp_M9qsW-22" target="Umm4PGDIliKXAp_M9qsW-44">
          <mxGeometry relative="1" as="geometry" />
        </mxCell>
        <mxCell id="Umm4PGDIliKXAp_M9qsW-21" value="No" style="edgeLabel;html=1;align=center;verticalAlign=middle;resizable=0;points=[];" vertex="1" connectable="0" parent="Umm4PGDIliKXAp_M9qsW-20">
          <mxGeometry x="-0.1" relative="1" as="geometry">
            <mxPoint x="-1" y="-1" as="offset" />
          </mxGeometry>
        </mxCell>
        <mxCell id="Umm4PGDIliKXAp_M9qsW-22" value="Does the database have the stock table" style="rhombus;whiteSpace=wrap;html=1;" vertex="1" parent="1">
          <mxGeometry y="480" width="120" height="80" as="geometry" />
        </mxCell>
        <mxCell id="Umm4PGDIliKXAp_M9qsW-23" value="" style="edgeStyle=orthogonalEdgeStyle;rounded=0;orthogonalLoop=1;jettySize=auto;html=1;" edge="1" parent="1" source="Umm4PGDIliKXAp_M9qsW-27" target="Umm4PGDIliKXAp_M9qsW-35">
          <mxGeometry relative="1" as="geometry" />
        </mxCell>
        <mxCell id="Umm4PGDIliKXAp_M9qsW-24" value="Yes" style="edgeLabel;html=1;align=center;verticalAlign=middle;resizable=0;points=[];" vertex="1" connectable="0" parent="Umm4PGDIliKXAp_M9qsW-23">
          <mxGeometry x="-0.1" relative="1" as="geometry">
            <mxPoint x="-1" y="-18" as="offset" />
          </mxGeometry>
        </mxCell>
        <mxCell id="Umm4PGDIliKXAp_M9qsW-25" value="" style="edgeStyle=orthogonalEdgeStyle;rounded=0;orthogonalLoop=1;jettySize=auto;html=1;" edge="1" parent="1" source="Umm4PGDIliKXAp_M9qsW-27" target="Umm4PGDIliKXAp_M9qsW-51">
          <mxGeometry relative="1" as="geometry" />
        </mxCell>
        <mxCell id="Umm4PGDIliKXAp_M9qsW-26" value="No" style="edgeLabel;html=1;align=center;verticalAlign=middle;resizable=0;points=[];" vertex="1" connectable="0" parent="Umm4PGDIliKXAp_M9qsW-25">
          <mxGeometry x="-0.2" y="-1" relative="1" as="geometry">
            <mxPoint y="-2" as="offset" />
          </mxGeometry>
        </mxCell>
        <mxCell id="Umm4PGDIliKXAp_M9qsW-27" value="Does the stock table have data inside" style="rhombus;whiteSpace=wrap;html=1;" vertex="1" parent="1">
          <mxGeometry y="680" width="120" height="80" as="geometry" />
        </mxCell>
        <mxCell id="Umm4PGDIliKXAp_M9qsW-28" value="" style="edgeStyle=orthogonalEdgeStyle;rounded=0;orthogonalLoop=1;jettySize=auto;html=1;" edge="1" parent="1" source="Umm4PGDIliKXAp_M9qsW-29" target="Umm4PGDIliKXAp_M9qsW-36">
          <mxGeometry relative="1" as="geometry" />
        </mxCell>
        <mxCell id="Umm4PGDIliKXAp_M9qsW-29" value="Throw error" style="rounded=0;whiteSpace=wrap;html=1;" vertex="1" parent="1">
          <mxGeometry x="280" y="100" width="120" height="40" as="geometry" />
        </mxCell>
        <mxCell id="Umm4PGDIliKXAp_M9qsW-30" value="" style="edgeStyle=orthogonalEdgeStyle;rounded=0;orthogonalLoop=1;jettySize=auto;html=1;exitX=1;exitY=0.5;exitDx=0;exitDy=0;" edge="1" parent="1" source="Umm4PGDIliKXAp_M9qsW-34" target="Umm4PGDIliKXAp_M9qsW-29">
          <mxGeometry relative="1" as="geometry" />
        </mxCell>
        <mxCell id="Umm4PGDIliKXAp_M9qsW-31" value="No" style="edgeLabel;html=1;align=center;verticalAlign=middle;resizable=0;points=[];" vertex="1" connectable="0" parent="Umm4PGDIliKXAp_M9qsW-30">
          <mxGeometry x="-0.3" y="-1" relative="1" as="geometry">
            <mxPoint x="-29" y="-1" as="offset" />
          </mxGeometry>
        </mxCell>
        <mxCell id="Umm4PGDIliKXAp_M9qsW-32" value="" style="edgeStyle=orthogonalEdgeStyle;rounded=0;orthogonalLoop=1;jettySize=auto;html=1;" edge="1" parent="1" source="Umm4PGDIliKXAp_M9qsW-34" target="Umm4PGDIliKXAp_M9qsW-38">
          <mxGeometry relative="1" as="geometry" />
        </mxCell>
        <mxCell id="Umm4PGDIliKXAp_M9qsW-33" value="Yes" style="edgeLabel;html=1;align=center;verticalAlign=middle;resizable=0;points=[];" vertex="1" connectable="0" parent="Umm4PGDIliKXAp_M9qsW-32">
          <mxGeometry x="-0.2" relative="1" as="geometry">
            <mxPoint as="offset" />
          </mxGeometry>
        </mxCell>
        <mxCell id="Umm4PGDIliKXAp_M9qsW-34" value="Does the bank table schema exist" style="rhombus;whiteSpace=wrap;html=1;" vertex="1" parent="1">
          <mxGeometry x="160" y="200" width="120" height="80" as="geometry" />
        </mxCell>
        <mxCell id="Umm4PGDIliKXAp_M9qsW-35" value="main" style="shape=process;whiteSpace=wrap;html=1;backgroundOutline=1;" vertex="1" parent="1">
          <mxGeometry y="840" width="120" height="40" as="geometry" />
        </mxCell>
        <mxCell id="Umm4PGDIliKXAp_M9qsW-36" value="end" style="rounded=1;whiteSpace=wrap;html=1;" vertex="1" parent="1">
          <mxGeometry x="440" y="100" width="120" height="40" as="geometry" />
        </mxCell>
        <mxCell id="Umm4PGDIliKXAp_M9qsW-37" value="" style="edgeStyle=orthogonalEdgeStyle;rounded=0;orthogonalLoop=1;jettySize=auto;html=1;" edge="1" parent="1" source="Umm4PGDIliKXAp_M9qsW-38" target="Umm4PGDIliKXAp_M9qsW-39">
          <mxGeometry relative="1" as="geometry" />
        </mxCell>
        <mxCell id="Umm4PGDIliKXAp_M9qsW-38" value="Run bank schema" style="rounded=0;whiteSpace=wrap;html=1;" vertex="1" parent="1">
          <mxGeometry x="160" y="320" width="120" height="40" as="geometry" />
        </mxCell>
        <mxCell id="Umm4PGDIliKXAp_M9qsW-39" value="Add bank data" style="rounded=0;whiteSpace=wrap;html=1;" vertex="1" parent="1">
          <mxGeometry x="160" y="400" width="120" height="40" as="geometry" />
        </mxCell>
        <mxCell id="Umm4PGDIliKXAp_M9qsW-40" style="edgeStyle=orthogonalEdgeStyle;rounded=0;orthogonalLoop=1;jettySize=auto;html=1;exitX=1;exitY=0.5;exitDx=0;exitDy=0;entryX=0.5;entryY=1;entryDx=0;entryDy=0;" edge="1" parent="1" source="Umm4PGDIliKXAp_M9qsW-44" target="Umm4PGDIliKXAp_M9qsW-29">
          <mxGeometry relative="1" as="geometry" />
        </mxCell>
        <mxCell id="Umm4PGDIliKXAp_M9qsW-41" value="No" style="edgeLabel;html=1;align=center;verticalAlign=middle;resizable=0;points=[];" vertex="1" connectable="0" parent="Umm4PGDIliKXAp_M9qsW-40">
          <mxGeometry x="-0.8696" relative="1" as="geometry">
            <mxPoint y="-1" as="offset" />
          </mxGeometry>
        </mxCell>
        <mxCell id="Umm4PGDIliKXAp_M9qsW-42" value="" style="edgeStyle=orthogonalEdgeStyle;rounded=0;orthogonalLoop=1;jettySize=auto;html=1;" edge="1" parent="1" source="Umm4PGDIliKXAp_M9qsW-44" target="Umm4PGDIliKXAp_M9qsW-46">
          <mxGeometry relative="1" as="geometry" />
        </mxCell>
        <mxCell id="Umm4PGDIliKXAp_M9qsW-43" value="Yes" style="edgeLabel;html=1;align=center;verticalAlign=middle;resizable=0;points=[];" vertex="1" connectable="0" parent="Umm4PGDIliKXAp_M9qsW-42">
          <mxGeometry x="-0.05" y="2" relative="1" as="geometry">
            <mxPoint x="-3" y="-3" as="offset" />
          </mxGeometry>
        </mxCell>
        <mxCell id="Umm4PGDIliKXAp_M9qsW-44" value="Does the stock table schema exist" style="rhombus;whiteSpace=wrap;html=1;" vertex="1" parent="1">
          <mxGeometry x="160" y="480" width="120" height="80" as="geometry" />
        </mxCell>
        <mxCell id="Umm4PGDIliKXAp_M9qsW-45" value="" style="edgeStyle=orthogonalEdgeStyle;rounded=0;orthogonalLoop=1;jettySize=auto;html=1;" edge="1" parent="1" source="Umm4PGDIliKXAp_M9qsW-46" target="Umm4PGDIliKXAp_M9qsW-51">
          <mxGeometry relative="1" as="geometry" />
        </mxCell>
        <mxCell id="Umm4PGDIliKXAp_M9qsW-46" value="Run stock schema" style="rounded=0;whiteSpace=wrap;html=1;" vertex="1" parent="1">
          <mxGeometry x="160" y="600" width="120" height="40" as="geometry" />
        </mxCell>
        <mxCell id="Umm4PGDIliKXAp_M9qsW-47" style="edgeStyle=orthogonalEdgeStyle;rounded=0;orthogonalLoop=1;jettySize=auto;html=1;exitX=1;exitY=0.5;exitDx=0;exitDy=0;entryX=0.5;entryY=1;entryDx=0;entryDy=0;" edge="1" parent="1" source="Umm4PGDIliKXAp_M9qsW-51" target="Umm4PGDIliKXAp_M9qsW-29">
          <mxGeometry relative="1" as="geometry" />
        </mxCell>
        <mxCell id="Umm4PGDIliKXAp_M9qsW-48" value="No" style="edgeLabel;html=1;align=center;verticalAlign=middle;resizable=0;points=[];" vertex="1" connectable="0" parent="Umm4PGDIliKXAp_M9qsW-47">
          <mxGeometry x="-0.9156" y="-2" relative="1" as="geometry">
            <mxPoint y="-2" as="offset" />
          </mxGeometry>
        </mxCell>
        <mxCell id="Umm4PGDIliKXAp_M9qsW-49" value="" style="edgeStyle=orthogonalEdgeStyle;rounded=0;orthogonalLoop=1;jettySize=auto;html=1;" edge="1" parent="1" source="Umm4PGDIliKXAp_M9qsW-51" target="Umm4PGDIliKXAp_M9qsW-53">
          <mxGeometry relative="1" as="geometry" />
        </mxCell>
        <mxCell id="Umm4PGDIliKXAp_M9qsW-50" value="Yes" style="edgeLabel;html=1;align=center;verticalAlign=middle;resizable=0;points=[];" vertex="1" connectable="0" parent="Umm4PGDIliKXAp_M9qsW-49">
          <mxGeometry x="-0.2" y="1" relative="1" as="geometry">
            <mxPoint x="-2" as="offset" />
          </mxGeometry>
        </mxCell>
        <mxCell id="Umm4PGDIliKXAp_M9qsW-51" value="Does stocks.csv exist?" style="rhombus;whiteSpace=wrap;html=1;" vertex="1" parent="1">
          <mxGeometry x="160" y="680" width="120" height="80" as="geometry" />
        </mxCell>
        <mxCell id="Umm4PGDIliKXAp_M9qsW-52" value="" style="edgeStyle=orthogonalEdgeStyle;rounded=0;orthogonalLoop=1;jettySize=auto;html=1;" edge="1" parent="1" source="Umm4PGDIliKXAp_M9qsW-53" target="Umm4PGDIliKXAp_M9qsW-58">
          <mxGeometry relative="1" as="geometry" />
        </mxCell>
        <mxCell id="Umm4PGDIliKXAp_M9qsW-53" value="Parse csv to get company names" style="rounded=0;whiteSpace=wrap;html=1;" vertex="1" parent="1">
          <mxGeometry x="160" y="800" width="120" height="40" as="geometry" />
        </mxCell>
        <mxCell id="Umm4PGDIliKXAp_M9qsW-54" value="" style="edgeStyle=orthogonalEdgeStyle;rounded=0;orthogonalLoop=1;jettySize=auto;html=1;" edge="1" parent="1" source="Umm4PGDIliKXAp_M9qsW-58" target="Umm4PGDIliKXAp_M9qsW-60">
          <mxGeometry relative="1" as="geometry" />
        </mxCell>
        <mxCell id="Umm4PGDIliKXAp_M9qsW-55" value="No" style="edgeLabel;html=1;align=center;verticalAlign=middle;resizable=0;points=[];" vertex="1" connectable="0" parent="Umm4PGDIliKXAp_M9qsW-54">
          <mxGeometry x="-0.15" y="-1" relative="1" as="geometry">
            <mxPoint x="-1" y="-1" as="offset" />
          </mxGeometry>
        </mxCell>
        <mxCell id="Umm4PGDIliKXAp_M9qsW-56" style="edgeStyle=orthogonalEdgeStyle;rounded=0;orthogonalLoop=1;jettySize=auto;html=1;exitX=0;exitY=0.5;exitDx=0;exitDy=0;entryX=0.5;entryY=0;entryDx=0;entryDy=0;" edge="1" parent="1" source="Umm4PGDIliKXAp_M9qsW-58" target="Umm4PGDIliKXAp_M9qsW-35">
          <mxGeometry relative="1" as="geometry">
            <Array as="points">
              <mxPoint x="140" y="920" />
              <mxPoint x="140" y="800" />
              <mxPoint x="60" y="800" />
            </Array>
          </mxGeometry>
        </mxCell>
        <mxCell id="Umm4PGDIliKXAp_M9qsW-57" value="Yes" style="edgeLabel;html=1;align=center;verticalAlign=middle;resizable=0;points=[];" vertex="1" connectable="0" parent="Umm4PGDIliKXAp_M9qsW-56">
          <mxGeometry x="-0.6067" y="1" relative="1" as="geometry">
            <mxPoint as="offset" />
          </mxGeometry>
        </mxCell>
        <mxCell id="Umm4PGDIliKXAp_M9qsW-58" value="Looped through all company names in csv?" style="rhombus;whiteSpace=wrap;html=1;" vertex="1" parent="1">
          <mxGeometry x="160" y="880" width="120" height="80" as="geometry" />
        </mxCell>
        <mxCell id="Umm4PGDIliKXAp_M9qsW-59" value="" style="edgeStyle=orthogonalEdgeStyle;rounded=0;orthogonalLoop=1;jettySize=auto;html=1;" edge="1" parent="1" source="Umm4PGDIliKXAp_M9qsW-60" target="Umm4PGDIliKXAp_M9qsW-62">
          <mxGeometry relative="1" as="geometry" />
        </mxCell>
        <mxCell id="Umm4PGDIliKXAp_M9qsW-60" value="Scrape YahooFinance to get symbol of company name" style="rounded=0;whiteSpace=wrap;html=1;" vertex="1" parent="1">
          <mxGeometry x="320" y="890" width="120" height="60" as="geometry" />
        </mxCell>
        <mxCell id="Umm4PGDIliKXAp_M9qsW-61" value="" style="edgeStyle=orthogonalEdgeStyle;rounded=0;orthogonalLoop=1;jettySize=auto;html=1;" edge="1" parent="1" source="Umm4PGDIliKXAp_M9qsW-62" target="Umm4PGDIliKXAp_M9qsW-69">
          <mxGeometry relative="1" as="geometry" />
        </mxCell>
        <mxCell id="Umm4PGDIliKXAp_M9qsW-62" value="Use StockAPI to get current stock price" style="rounded=0;whiteSpace=wrap;html=1;" vertex="1" parent="1">
          <mxGeometry x="320" y="1000" width="120" height="40" as="geometry" />
        </mxCell>
        <mxCell id="Umm4PGDIliKXAp_M9qsW-63" style="edgeStyle=orthogonalEdgeStyle;rounded=0;orthogonalLoop=1;jettySize=auto;html=1;exitX=0.5;exitY=0;exitDx=0;exitDy=0;entryX=0.5;entryY=0;entryDx=0;entryDy=0;" edge="1" parent="1" source="Umm4PGDIliKXAp_M9qsW-64" target="Umm4PGDIliKXAp_M9qsW-58">
          <mxGeometry relative="1" as="geometry">
            <Array as="points">
              <mxPoint x="540" y="860" />
              <mxPoint x="220" y="860" />
            </Array>
          </mxGeometry>
        </mxCell>
        <mxCell id="Umm4PGDIliKXAp_M9qsW-64" value="Store company name, symbol, and price in database" style="rounded=0;whiteSpace=wrap;html=1;" vertex="1" parent="1">
          <mxGeometry x="480" y="900" width="120" height="40" as="geometry" />
        </mxCell>
        <mxCell id="Umm4PGDIliKXAp_M9qsW-65" value="" style="edgeStyle=orthogonalEdgeStyle;rounded=0;orthogonalLoop=1;jettySize=auto;html=1;exitX=0.5;exitY=0;exitDx=0;exitDy=0;" edge="1" parent="1" source="Umm4PGDIliKXAp_M9qsW-69" target="Umm4PGDIliKXAp_M9qsW-64">
          <mxGeometry relative="1" as="geometry" />
        </mxCell>
        <mxCell id="Umm4PGDIliKXAp_M9qsW-66" value="Yes" style="edgeLabel;html=1;align=center;verticalAlign=middle;resizable=0;points=[];" vertex="1" connectable="0" parent="Umm4PGDIliKXAp_M9qsW-65">
          <mxGeometry x="-0.35" relative="1" as="geometry">
            <mxPoint x="-1" y="-2" as="offset" />
          </mxGeometry>
        </mxCell>
        <mxCell id="Umm4PGDIliKXAp_M9qsW-67" value="" style="edgeStyle=orthogonalEdgeStyle;rounded=0;orthogonalLoop=1;jettySize=auto;html=1;entryX=0.5;entryY=0;entryDx=0;entryDy=0;" edge="1" parent="1" source="Umm4PGDIliKXAp_M9qsW-69" target="Umm4PGDIliKXAp_M9qsW-58">
          <mxGeometry relative="1" as="geometry">
            <mxPoint x="540" y="1090" as="targetPoint" />
            <Array as="points">
              <mxPoint x="630" y="1020" />
              <mxPoint x="630" y="860" />
              <mxPoint x="220" y="860" />
            </Array>
          </mxGeometry>
        </mxCell>
        <mxCell id="Umm4PGDIliKXAp_M9qsW-68" value="No" style="edgeLabel;html=1;align=center;verticalAlign=middle;resizable=0;points=[];" vertex="1" connectable="0" parent="Umm4PGDIliKXAp_M9qsW-67">
          <mxGeometry x="-0.275" relative="1" as="geometry">
            <mxPoint x="19" y="159" as="offset" />
          </mxGeometry>
        </mxCell>
        <mxCell id="Umm4PGDIliKXAp_M9qsW-69" value="20x response?" style="rhombus;whiteSpace=wrap;html=1;" vertex="1" parent="1">
          <mxGeometry x="480" y="990" width="120" height="60" as="geometry" />
        </mxCell>
      </root>
    </mxGraphModel>
  </diagram>
  <diagram id="-TEQnAnjAAP55AWbVbTS" name="Main">
    <mxGraphModel dx="954" dy="674" grid="1" gridSize="10" guides="1" tooltips="1" connect="1" arrows="1" fold="1" page="1" pageScale="1" pageWidth="827" pageHeight="1169" math="0" shadow="0">
      <root>
        <mxCell id="0" />
        <mxCell id="1" parent="0" />
        <mxCell id="qz_00X-8MRaNjrLDEdZk-5" value="" style="edgeStyle=orthogonalEdgeStyle;rounded=0;orthogonalLoop=1;jettySize=auto;html=1;" edge="1" parent="1" source="qz_00X-8MRaNjrLDEdZk-1" target="qz_00X-8MRaNjrLDEdZk-2">
          <mxGeometry relative="1" as="geometry" />
        </mxCell>
        <mxCell id="qz_00X-8MRaNjrLDEdZk-1" value="main" style="shape=process;whiteSpace=wrap;html=1;backgroundOutline=1;" vertex="1" parent="1">
          <mxGeometry width="120" height="40" as="geometry" />
        </mxCell>
        <mxCell id="qz_00X-8MRaNjrLDEdZk-6" value="" style="edgeStyle=orthogonalEdgeStyle;rounded=0;orthogonalLoop=1;jettySize=auto;html=1;" edge="1" parent="1" source="qz_00X-8MRaNjrLDEdZk-2" target="qz_00X-8MRaNjrLDEdZk-3">
          <mxGeometry relative="1" as="geometry" />
        </mxCell>
        <mxCell id="qz_00X-8MRaNjrLDEdZk-2" value="Update stock data and weights" style="shape=process;whiteSpace=wrap;html=1;backgroundOutline=1;" vertex="1" parent="1">
          <mxGeometry y="80" width="120" height="40" as="geometry" />
        </mxCell>
        <mxCell id="qz_00X-8MRaNjrLDEdZk-7" value="" style="edgeStyle=orthogonalEdgeStyle;rounded=0;orthogonalLoop=1;jettySize=auto;html=1;" edge="1" parent="1" source="qz_00X-8MRaNjrLDEdZk-3" target="qz_00X-8MRaNjrLDEdZk-4">
          <mxGeometry relative="1" as="geometry" />
        </mxCell>
        <mxCell id="qz_00X-8MRaNjrLDEdZk-3" value="Get optimal portfolio" style="shape=process;whiteSpace=wrap;html=1;backgroundOutline=1;" vertex="1" parent="1">
          <mxGeometry y="160" width="120" height="40" as="geometry" />
        </mxCell>
        <mxCell id="vMgM10Tm_09tRYVCcg0_-2" value="" style="edgeStyle=orthogonalEdgeStyle;rounded=0;orthogonalLoop=1;jettySize=auto;html=1;" edge="1" parent="1" source="qz_00X-8MRaNjrLDEdZk-4" target="vMgM10Tm_09tRYVCcg0_-1">
          <mxGeometry relative="1" as="geometry" />
        </mxCell>
        <mxCell id="qz_00X-8MRaNjrLDEdZk-4" value="Update portfolio" style="shape=process;whiteSpace=wrap;html=1;backgroundOutline=1;" vertex="1" parent="1">
          <mxGeometry y="240" width="120" height="40" as="geometry" />
        </mxCell>
        <mxCell id="vMgM10Tm_09tRYVCcg0_-1" value="end" style="rounded=1;whiteSpace=wrap;html=1;" vertex="1" parent="1">
          <mxGeometry y="320" width="120" height="40" as="geometry" />
        </mxCell>
      </root>
    </mxGraphModel>
  </diagram>
  <diagram id="RPSiz4EpTb6Ma3BisgSt" name="Update stock data and weights">
    <mxGraphModel dx="1122" dy="793" grid="1" gridSize="10" guides="1" tooltips="1" connect="1" arrows="1" fold="1" page="1" pageScale="1" pageWidth="827" pageHeight="1169" math="0" shadow="0">
      <root>
        <mxCell id="0" />
        <mxCell id="1" parent="0" />
        <mxCell id="kIVuqDeiKdNNevoop3xR-10" value="" style="edgeStyle=orthogonalEdgeStyle;rounded=0;orthogonalLoop=1;jettySize=auto;html=1;" edge="1" parent="1" source="80cjsfdolXaKPVcOqels-1" target="80cjsfdolXaKPVcOqels-2">
          <mxGeometry relative="1" as="geometry" />
        </mxCell>
        <mxCell id="80cjsfdolXaKPVcOqels-1" value="Update stock data and weights" style="shape=process;whiteSpace=wrap;html=1;backgroundOutline=1;" vertex="1" parent="1">
          <mxGeometry x="200" width="120" height="40" as="geometry" />
        </mxCell>
        <mxCell id="kIVuqDeiKdNNevoop3xR-11" value="" style="edgeStyle=orthogonalEdgeStyle;rounded=0;orthogonalLoop=1;jettySize=auto;html=1;" edge="1" parent="1" source="80cjsfdolXaKPVcOqels-2" target="kIVuqDeiKdNNevoop3xR-1">
          <mxGeometry relative="1" as="geometry" />
        </mxCell>
        <mxCell id="80cjsfdolXaKPVcOqels-2" value="Get all current stock data in database" style="rounded=0;whiteSpace=wrap;html=1;" vertex="1" parent="1">
          <mxGeometry x="200" y="80" width="120" height="40" as="geometry" />
        </mxCell>
        <mxCell id="kIVuqDeiKdNNevoop3xR-3" value="" style="edgeStyle=orthogonalEdgeStyle;rounded=0;orthogonalLoop=1;jettySize=auto;html=1;" edge="1" parent="1" source="kIVuqDeiKdNNevoop3xR-1" target="kIVuqDeiKdNNevoop3xR-2">
          <mxGeometry relative="1" as="geometry" />
        </mxCell>
        <mxCell id="kIVuqDeiKdNNevoop3xR-32" value="No" style="edgeLabel;html=1;align=center;verticalAlign=middle;resizable=0;points=[];" vertex="1" connectable="0" parent="kIVuqDeiKdNNevoop3xR-3">
          <mxGeometry x="-0.25" y="1" relative="1" as="geometry">
            <mxPoint as="offset" />
          </mxGeometry>
        </mxCell>
        <mxCell id="kIVuqDeiKdNNevoop3xR-34" value="" style="edgeStyle=orthogonalEdgeStyle;rounded=0;orthogonalLoop=1;jettySize=auto;html=1;" edge="1" parent="1" source="kIVuqDeiKdNNevoop3xR-1" target="kIVuqDeiKdNNevoop3xR-33">
          <mxGeometry relative="1" as="geometry" />
        </mxCell>
        <mxCell id="kIVuqDeiKdNNevoop3xR-35" value="Yes" style="edgeLabel;html=1;align=center;verticalAlign=middle;resizable=0;points=[];" vertex="1" connectable="0" parent="kIVuqDeiKdNNevoop3xR-34">
          <mxGeometry x="-0.1147" relative="1" as="geometry">
            <mxPoint x="-7" y="-8" as="offset" />
          </mxGeometry>
        </mxCell>
        <mxCell id="kIVuqDeiKdNNevoop3xR-1" value="Looped through all stocks?" style="rhombus;whiteSpace=wrap;html=1;" vertex="1" parent="1">
          <mxGeometry x="200" y="160" width="120" height="80" as="geometry" />
        </mxCell>
        <mxCell id="kIVuqDeiKdNNevoop3xR-12" value="" style="edgeStyle=orthogonalEdgeStyle;rounded=0;orthogonalLoop=1;jettySize=auto;html=1;" edge="1" parent="1" source="kIVuqDeiKdNNevoop3xR-2" target="kIVuqDeiKdNNevoop3xR-4">
          <mxGeometry relative="1" as="geometry" />
        </mxCell>
        <mxCell id="kIVuqDeiKdNNevoop3xR-2" value="Set stock&#39;s historic_price to current_price" style="rounded=0;whiteSpace=wrap;html=1;" vertex="1" parent="1">
          <mxGeometry x="200" y="280" width="120" height="40" as="geometry" />
        </mxCell>
        <mxCell id="kIVuqDeiKdNNevoop3xR-13" value="" style="edgeStyle=orthogonalEdgeStyle;rounded=0;orthogonalLoop=1;jettySize=auto;html=1;" edge="1" parent="1" source="kIVuqDeiKdNNevoop3xR-4" target="kIVuqDeiKdNNevoop3xR-6">
          <mxGeometry relative="1" as="geometry" />
        </mxCell>
        <mxCell id="kIVuqDeiKdNNevoop3xR-4" value="Query API with symbol for new price" style="rounded=0;whiteSpace=wrap;html=1;" vertex="1" parent="1">
          <mxGeometry x="200" y="360" width="120" height="40" as="geometry" />
        </mxCell>
        <mxCell id="kIVuqDeiKdNNevoop3xR-9" value="" style="edgeStyle=orthogonalEdgeStyle;rounded=0;orthogonalLoop=1;jettySize=auto;html=1;" edge="1" parent="1" source="kIVuqDeiKdNNevoop3xR-6" target="kIVuqDeiKdNNevoop3xR-8">
          <mxGeometry relative="1" as="geometry" />
        </mxCell>
        <mxCell id="kIVuqDeiKdNNevoop3xR-19" value="" style="edgeStyle=orthogonalEdgeStyle;rounded=0;orthogonalLoop=1;jettySize=auto;html=1;" edge="1" parent="1" source="kIVuqDeiKdNNevoop3xR-6" target="kIVuqDeiKdNNevoop3xR-14">
          <mxGeometry relative="1" as="geometry" />
        </mxCell>
        <mxCell id="kIVuqDeiKdNNevoop3xR-6" value="Response is 20x?" style="rhombus;whiteSpace=wrap;html=1;" vertex="1" parent="1">
          <mxGeometry x="200" y="440" width="120" height="80" as="geometry" />
        </mxCell>
        <mxCell id="kIVuqDeiKdNNevoop3xR-29" style="edgeStyle=orthogonalEdgeStyle;rounded=0;orthogonalLoop=1;jettySize=auto;html=1;exitX=0.5;exitY=0;exitDx=0;exitDy=0;entryX=0;entryY=0.5;entryDx=0;entryDy=0;" edge="1" parent="1" source="kIVuqDeiKdNNevoop3xR-8" target="kIVuqDeiKdNNevoop3xR-1">
          <mxGeometry relative="1" as="geometry" />
        </mxCell>
        <mxCell id="kIVuqDeiKdNNevoop3xR-8" value="Throw error" style="rounded=0;whiteSpace=wrap;html=1;" vertex="1" parent="1">
          <mxGeometry x="40" y="460" width="120" height="40" as="geometry" />
        </mxCell>
        <mxCell id="kIVuqDeiKdNNevoop3xR-20" value="" style="edgeStyle=orthogonalEdgeStyle;rounded=0;orthogonalLoop=1;jettySize=auto;html=1;" edge="1" parent="1" source="kIVuqDeiKdNNevoop3xR-14" target="kIVuqDeiKdNNevoop3xR-15">
          <mxGeometry relative="1" as="geometry" />
        </mxCell>
        <mxCell id="kIVuqDeiKdNNevoop3xR-14" value="Set stocks current_price to response" style="rounded=0;whiteSpace=wrap;html=1;" vertex="1" parent="1">
          <mxGeometry x="200" y="560" width="120" height="40" as="geometry" />
        </mxCell>
        <mxCell id="kIVuqDeiKdNNevoop3xR-21" value="" style="edgeStyle=orthogonalEdgeStyle;rounded=0;orthogonalLoop=1;jettySize=auto;html=1;" edge="1" parent="1" source="kIVuqDeiKdNNevoop3xR-15" target="kIVuqDeiKdNNevoop3xR-17">
          <mxGeometry relative="1" as="geometry" />
        </mxCell>
        <mxCell id="kIVuqDeiKdNNevoop3xR-15" value="Calculate the weight" style="rounded=0;whiteSpace=wrap;html=1;" vertex="1" parent="1">
          <mxGeometry x="200" y="640" width="120" height="40" as="geometry" />
        </mxCell>
        <mxCell id="kIVuqDeiKdNNevoop3xR-22" value="" style="edgeStyle=orthogonalEdgeStyle;rounded=0;orthogonalLoop=1;jettySize=auto;html=1;" edge="1" parent="1" source="kIVuqDeiKdNNevoop3xR-17" target="kIVuqDeiKdNNevoop3xR-18">
          <mxGeometry relative="1" as="geometry" />
        </mxCell>
        <mxCell id="kIVuqDeiKdNNevoop3xR-26" value="" style="edgeStyle=orthogonalEdgeStyle;rounded=0;orthogonalLoop=1;jettySize=auto;html=1;" edge="1" parent="1" source="kIVuqDeiKdNNevoop3xR-17" target="kIVuqDeiKdNNevoop3xR-23">
          <mxGeometry relative="1" as="geometry" />
        </mxCell>
        <mxCell id="kIVuqDeiKdNNevoop3xR-17" value="Is weight bigger than max_weight?" style="rhombus;whiteSpace=wrap;html=1;" vertex="1" parent="1">
          <mxGeometry x="200" y="720" width="120" height="80" as="geometry" />
        </mxCell>
        <mxCell id="kIVuqDeiKdNNevoop3xR-27" value="" style="edgeStyle=orthogonalEdgeStyle;rounded=0;orthogonalLoop=1;jettySize=auto;html=1;" edge="1" parent="1" source="kIVuqDeiKdNNevoop3xR-18" target="kIVuqDeiKdNNevoop3xR-24">
          <mxGeometry relative="1" as="geometry" />
        </mxCell>
        <mxCell id="kIVuqDeiKdNNevoop3xR-31" style="edgeStyle=orthogonalEdgeStyle;rounded=0;orthogonalLoop=1;jettySize=auto;html=1;exitX=0.5;exitY=1;exitDx=0;exitDy=0;entryX=0;entryY=0.5;entryDx=0;entryDy=0;" edge="1" parent="1" source="kIVuqDeiKdNNevoop3xR-18" target="kIVuqDeiKdNNevoop3xR-1">
          <mxGeometry relative="1" as="geometry">
            <mxPoint x="170" y="230" as="targetPoint" />
            <Array as="points">
              <mxPoint x="260" y="940" />
              <mxPoint x="20" y="940" />
              <mxPoint x="20" y="200" />
            </Array>
          </mxGeometry>
        </mxCell>
        <mxCell id="kIVuqDeiKdNNevoop3xR-18" value="Is weight smaller than min_weight?" style="rhombus;whiteSpace=wrap;html=1;" vertex="1" parent="1">
          <mxGeometry x="200" y="840" width="120" height="80" as="geometry" />
        </mxCell>
        <mxCell id="kIVuqDeiKdNNevoop3xR-25" style="edgeStyle=orthogonalEdgeStyle;rounded=0;orthogonalLoop=1;jettySize=auto;html=1;exitX=0.5;exitY=1;exitDx=0;exitDy=0;entryX=0.5;entryY=0;entryDx=0;entryDy=0;" edge="1" parent="1" source="kIVuqDeiKdNNevoop3xR-23" target="kIVuqDeiKdNNevoop3xR-18">
          <mxGeometry relative="1" as="geometry">
            <Array as="points">
              <mxPoint x="100" y="820" />
              <mxPoint x="260" y="820" />
            </Array>
          </mxGeometry>
        </mxCell>
        <mxCell id="kIVuqDeiKdNNevoop3xR-23" value="Set max_weight to stock&#39;s weight" style="rounded=0;whiteSpace=wrap;html=1;" vertex="1" parent="1">
          <mxGeometry x="40" y="740" width="120" height="40" as="geometry" />
        </mxCell>
        <mxCell id="kIVuqDeiKdNNevoop3xR-30" style="edgeStyle=orthogonalEdgeStyle;rounded=0;orthogonalLoop=1;jettySize=auto;html=1;exitX=0;exitY=0.5;exitDx=0;exitDy=0;entryX=0;entryY=0.5;entryDx=0;entryDy=0;" edge="1" parent="1" source="kIVuqDeiKdNNevoop3xR-24" target="kIVuqDeiKdNNevoop3xR-1">
          <mxGeometry relative="1" as="geometry" />
        </mxCell>
        <mxCell id="kIVuqDeiKdNNevoop3xR-24" value="Set min_weight to stock&#39;s weight" style="rounded=0;whiteSpace=wrap;html=1;" vertex="1" parent="1">
          <mxGeometry x="40" y="860" width="120" height="40" as="geometry" />
        </mxCell>
        <mxCell id="kIVuqDeiKdNNevoop3xR-37" value="" style="edgeStyle=orthogonalEdgeStyle;rounded=0;orthogonalLoop=1;jettySize=auto;html=1;" edge="1" parent="1" source="kIVuqDeiKdNNevoop3xR-33" target="kIVuqDeiKdNNevoop3xR-36">
          <mxGeometry relative="1" as="geometry" />
        </mxCell>
        <mxCell id="IzNldttJobW7us4Mr7lH-2" value="" style="edgeStyle=orthogonalEdgeStyle;rounded=0;orthogonalLoop=1;jettySize=auto;html=1;" edge="1" parent="1" source="kIVuqDeiKdNNevoop3xR-33" target="IzNldttJobW7us4Mr7lH-1">
          <mxGeometry relative="1" as="geometry" />
        </mxCell>
        <mxCell id="kIVuqDeiKdNNevoop3xR-33" value="Looped through all stocks?" style="rhombus;whiteSpace=wrap;html=1;" vertex="1" parent="1">
          <mxGeometry x="360" y="160" width="120" height="80" as="geometry" />
        </mxCell>
        <mxCell id="kIVuqDeiKdNNevoop3xR-39" style="edgeStyle=orthogonalEdgeStyle;rounded=0;orthogonalLoop=1;jettySize=auto;html=1;exitX=0;exitY=0.5;exitDx=0;exitDy=0;entryX=0;entryY=0.5;entryDx=0;entryDy=0;" edge="1" parent="1" source="kIVuqDeiKdNNevoop3xR-36" target="kIVuqDeiKdNNevoop3xR-33">
          <mxGeometry relative="1" as="geometry" />
        </mxCell>
        <mxCell id="kIVuqDeiKdNNevoop3xR-36" value="Normalise stock weight with:&lt;div&gt;(weight - min_weight) / (max_weight - min_weight)&lt;/div&gt;" style="rounded=0;whiteSpace=wrap;html=1;" vertex="1" parent="1">
          <mxGeometry x="360" y="280" width="120" height="80" as="geometry" />
        </mxCell>
        <mxCell id="IzNldttJobW7us4Mr7lH-1" value="Get optimal portfolio" style="shape=process;whiteSpace=wrap;html=1;backgroundOutline=1;" vertex="1" parent="1">
          <mxGeometry x="520" y="180" width="120" height="40" as="geometry" />
        </mxCell>
      </root>
    </mxGraphModel>
  </diagram>
  <diagram id="m8Q_Z15P3VLempvFdaEH" name="Update portfolio">
    <mxGraphModel dx="1193" dy="843" grid="1" gridSize="10" guides="1" tooltips="1" connect="1" arrows="1" fold="1" page="1" pageScale="1" pageWidth="827" pageHeight="1169" math="0" shadow="0">
      <root>
        <mxCell id="0" />
        <mxCell id="1" parent="0" />
        <mxCell id="Tg11ojRictkJ0Y5CGzH8-8" value="" style="edgeStyle=orthogonalEdgeStyle;rounded=0;orthogonalLoop=1;jettySize=auto;html=1;" edge="1" parent="1" source="Tg11ojRictkJ0Y5CGzH8-1" target="Tg11ojRictkJ0Y5CGzH8-7">
          <mxGeometry relative="1" as="geometry" />
        </mxCell>
        <mxCell id="Tg11ojRictkJ0Y5CGzH8-1" value="Update portfolio" style="shape=process;whiteSpace=wrap;html=1;backgroundOutline=1;" vertex="1" parent="1">
          <mxGeometry x="320" width="120" height="40" as="geometry" />
        </mxCell>
        <mxCell id="Tg11ojRictkJ0Y5CGzH8-4" value="" style="edgeStyle=orthogonalEdgeStyle;rounded=0;orthogonalLoop=1;jettySize=auto;html=1;" edge="1" parent="1" source="Tg11ojRictkJ0Y5CGzH8-2" target="Tg11ojRictkJ0Y5CGzH8-3">
          <mxGeometry relative="1" as="geometry" />
        </mxCell>
        <mxCell id="Tg11ojRictkJ0Y5CGzH8-2" value="Take optimal portfolio, and convert to set" style="rounded=0;whiteSpace=wrap;html=1;" vertex="1" parent="1">
          <mxGeometry x="320" y="160" width="120" height="40" as="geometry" />
        </mxCell>
        <mxCell id="Tg11ojRictkJ0Y5CGzH8-10" value="" style="edgeStyle=orthogonalEdgeStyle;rounded=0;orthogonalLoop=1;jettySize=auto;html=1;" edge="1" parent="1" source="Tg11ojRictkJ0Y5CGzH8-3" target="Tg11ojRictkJ0Y5CGzH8-6">
          <mxGeometry relative="1" as="geometry" />
        </mxCell>
        <mxCell id="Tg11ojRictkJ0Y5CGzH8-52" value="No" style="edgeLabel;html=1;align=center;verticalAlign=middle;resizable=0;points=[];" vertex="1" connectable="0" parent="Tg11ojRictkJ0Y5CGzH8-10">
          <mxGeometry x="-0.0875" relative="1" as="geometry">
            <mxPoint y="-1" as="offset" />
          </mxGeometry>
        </mxCell>
        <mxCell id="Tg11ojRictkJ0Y5CGzH8-54" value="" style="edgeStyle=orthogonalEdgeStyle;rounded=0;orthogonalLoop=1;jettySize=auto;html=1;" edge="1" parent="1" source="Tg11ojRictkJ0Y5CGzH8-3" target="Tg11ojRictkJ0Y5CGzH8-53">
          <mxGeometry relative="1" as="geometry" />
        </mxCell>
        <mxCell id="Tg11ojRictkJ0Y5CGzH8-55" value="Yes" style="edgeLabel;html=1;align=center;verticalAlign=middle;resizable=0;points=[];" vertex="1" connectable="0" parent="Tg11ojRictkJ0Y5CGzH8-54">
          <mxGeometry x="-0.1813" y="-1" relative="1" as="geometry">
            <mxPoint y="-9" as="offset" />
          </mxGeometry>
        </mxCell>
        <mxCell id="Tg11ojRictkJ0Y5CGzH8-3" value="Looped through each stock in old_portfolio?" style="rhombus;whiteSpace=wrap;html=1;" vertex="1" parent="1">
          <mxGeometry x="320" y="240" width="120" height="80" as="geometry" />
        </mxCell>
        <mxCell id="Tg11ojRictkJ0Y5CGzH8-14" value="" style="edgeStyle=orthogonalEdgeStyle;rounded=0;orthogonalLoop=1;jettySize=auto;html=1;" edge="1" parent="1" source="Tg11ojRictkJ0Y5CGzH8-6" target="Tg11ojRictkJ0Y5CGzH8-13">
          <mxGeometry relative="1" as="geometry" />
        </mxCell>
        <mxCell id="Tg11ojRictkJ0Y5CGzH8-16" value="No" style="edgeLabel;html=1;align=center;verticalAlign=middle;resizable=0;points=[];" vertex="1" connectable="0" parent="Tg11ojRictkJ0Y5CGzH8-14">
          <mxGeometry x="-0.2" relative="1" as="geometry">
            <mxPoint as="offset" />
          </mxGeometry>
        </mxCell>
        <mxCell id="Tg11ojRictkJ0Y5CGzH8-26" value="" style="edgeStyle=orthogonalEdgeStyle;rounded=0;orthogonalLoop=1;jettySize=auto;html=1;" edge="1" parent="1" source="Tg11ojRictkJ0Y5CGzH8-6" target="Tg11ojRictkJ0Y5CGzH8-17">
          <mxGeometry relative="1" as="geometry" />
        </mxCell>
        <mxCell id="Tg11ojRictkJ0Y5CGzH8-40" value="Yes" style="edgeLabel;html=1;align=center;verticalAlign=middle;resizable=0;points=[];" vertex="1" connectable="0" parent="Tg11ojRictkJ0Y5CGzH8-26">
          <mxGeometry x="-0.25" relative="1" as="geometry">
            <mxPoint as="offset" />
          </mxGeometry>
        </mxCell>
        <mxCell id="Tg11ojRictkJ0Y5CGzH8-6" value="Stock in optimal portfolio set?" style="rhombus;whiteSpace=wrap;html=1;" vertex="1" parent="1">
          <mxGeometry x="320" y="360" width="120" height="80" as="geometry" />
        </mxCell>
        <mxCell id="Tg11ojRictkJ0Y5CGzH8-9" value="" style="edgeStyle=orthogonalEdgeStyle;rounded=0;orthogonalLoop=1;jettySize=auto;html=1;" edge="1" parent="1" source="Tg11ojRictkJ0Y5CGzH8-7" target="Tg11ojRictkJ0Y5CGzH8-2">
          <mxGeometry relative="1" as="geometry" />
        </mxCell>
        <mxCell id="Tg11ojRictkJ0Y5CGzH8-7" value="Get old_portfolio from database" style="rounded=0;whiteSpace=wrap;html=1;" vertex="1" parent="1">
          <mxGeometry x="320" y="80" width="120" height="40" as="geometry" />
        </mxCell>
        <mxCell id="Tg11ojRictkJ0Y5CGzH8-63" value="" style="edgeStyle=orthogonalEdgeStyle;rounded=0;orthogonalLoop=1;jettySize=auto;html=1;" edge="1" parent="1" source="Tg11ojRictkJ0Y5CGzH8-13" target="Tg11ojRictkJ0Y5CGzH8-62">
          <mxGeometry relative="1" as="geometry" />
        </mxCell>
        <mxCell id="Tg11ojRictkJ0Y5CGzH8-13" value="Sell all of that type of stock from portfolio" style="rounded=0;whiteSpace=wrap;html=1;" vertex="1" parent="1">
          <mxGeometry x="160" y="380" width="120" height="40" as="geometry" />
        </mxCell>
        <mxCell id="Tg11ojRictkJ0Y5CGzH8-20" value="" style="edgeStyle=orthogonalEdgeStyle;rounded=0;orthogonalLoop=1;jettySize=auto;html=1;" edge="1" parent="1" source="Tg11ojRictkJ0Y5CGzH8-17" target="Tg11ojRictkJ0Y5CGzH8-18">
          <mxGeometry relative="1" as="geometry" />
        </mxCell>
        <mxCell id="Tg11ojRictkJ0Y5CGzH8-22" value="Yes" style="edgeLabel;html=1;align=center;verticalAlign=middle;resizable=0;points=[];" vertex="1" connectable="0" parent="Tg11ojRictkJ0Y5CGzH8-20">
          <mxGeometry x="-0.4" y="-1" relative="1" as="geometry">
            <mxPoint x="-8" y="1" as="offset" />
          </mxGeometry>
        </mxCell>
        <mxCell id="Tg11ojRictkJ0Y5CGzH8-50" value="No" style="edgeStyle=orthogonalEdgeStyle;rounded=0;orthogonalLoop=1;jettySize=auto;html=1;" edge="1" parent="1" source="Tg11ojRictkJ0Y5CGzH8-17" target="Tg11ojRictkJ0Y5CGzH8-45">
          <mxGeometry relative="1" as="geometry" />
        </mxCell>
        <mxCell id="Tg11ojRictkJ0Y5CGzH8-17" value="Stock&#39;s count more than in optimal portfolio?" style="rhombus;whiteSpace=wrap;html=1;" vertex="1" parent="1">
          <mxGeometry x="320" y="480" width="120" height="80" as="geometry" />
        </mxCell>
        <mxCell id="Tg11ojRictkJ0Y5CGzH8-43" style="edgeStyle=orthogonalEdgeStyle;rounded=0;orthogonalLoop=1;jettySize=auto;html=1;exitX=0;exitY=0.5;exitDx=0;exitDy=0;entryX=1;entryY=0.5;entryDx=0;entryDy=0;" edge="1" parent="1" source="Tg11ojRictkJ0Y5CGzH8-18" target="Tg11ojRictkJ0Y5CGzH8-41">
          <mxGeometry relative="1" as="geometry" />
        </mxCell>
        <mxCell id="Tg11ojRictkJ0Y5CGzH8-18" value="Sell extra shares of that stock to match optimal portfolio" style="rounded=0;whiteSpace=wrap;html=1;" vertex="1" parent="1">
          <mxGeometry x="160" y="500" width="120" height="40" as="geometry" />
        </mxCell>
        <mxCell id="Tg11ojRictkJ0Y5CGzH8-64" value="" style="edgeStyle=orthogonalEdgeStyle;rounded=0;orthogonalLoop=1;jettySize=auto;html=1;" edge="1" parent="1" source="Tg11ojRictkJ0Y5CGzH8-41" target="Tg11ojRictkJ0Y5CGzH8-62">
          <mxGeometry relative="1" as="geometry" />
        </mxCell>
        <mxCell id="Tg11ojRictkJ0Y5CGzH8-41" value="Deque stock from optimal portfolio" style="rounded=0;whiteSpace=wrap;html=1;" vertex="1" parent="1">
          <mxGeometry y="500" width="120" height="40" as="geometry" />
        </mxCell>
        <mxCell id="Tg11ojRictkJ0Y5CGzH8-49" value="&lt;div&gt;Yes&lt;/div&gt;" style="edgeStyle=orthogonalEdgeStyle;rounded=0;orthogonalLoop=1;jettySize=auto;html=1;" edge="1" parent="1" source="Tg11ojRictkJ0Y5CGzH8-45" target="Tg11ojRictkJ0Y5CGzH8-46">
          <mxGeometry relative="1" as="geometry" />
        </mxCell>
        <mxCell id="Tg11ojRictkJ0Y5CGzH8-51" style="edgeStyle=orthogonalEdgeStyle;rounded=0;orthogonalLoop=1;jettySize=auto;html=1;exitX=0.5;exitY=1;exitDx=0;exitDy=0;entryX=1;entryY=0.5;entryDx=0;entryDy=0;" edge="1" parent="1" source="Tg11ojRictkJ0Y5CGzH8-45" target="Tg11ojRictkJ0Y5CGzH8-41">
          <mxGeometry relative="1" as="geometry">
            <Array as="points">
              <mxPoint x="380" y="700" />
              <mxPoint x="140" y="700" />
              <mxPoint x="140" y="520" />
            </Array>
          </mxGeometry>
        </mxCell>
        <mxCell id="Tg11ojRictkJ0Y5CGzH8-76" value="No" style="edgeLabel;html=1;align=center;verticalAlign=middle;resizable=0;points=[];" vertex="1" connectable="0" parent="Tg11ojRictkJ0Y5CGzH8-51">
          <mxGeometry x="-0.8647" y="-2" relative="1" as="geometry">
            <mxPoint as="offset" />
          </mxGeometry>
        </mxCell>
        <mxCell id="Tg11ojRictkJ0Y5CGzH8-45" value="Stock&#39;s count less than in optimal portfolio?" style="rhombus;whiteSpace=wrap;html=1;" vertex="1" parent="1">
          <mxGeometry x="320" y="600" width="120" height="80" as="geometry" />
        </mxCell>
        <mxCell id="Tg11ojRictkJ0Y5CGzH8-48" style="edgeStyle=orthogonalEdgeStyle;rounded=0;orthogonalLoop=1;jettySize=auto;html=1;exitX=0;exitY=0.5;exitDx=0;exitDy=0;entryX=1;entryY=0.5;entryDx=0;entryDy=0;" edge="1" parent="1" source="Tg11ojRictkJ0Y5CGzH8-46" target="Tg11ojRictkJ0Y5CGzH8-41">
          <mxGeometry relative="1" as="geometry" />
        </mxCell>
        <mxCell id="Tg11ojRictkJ0Y5CGzH8-46" value="Buy extra shares of that stock to match optimal portfolio" style="rounded=0;whiteSpace=wrap;html=1;" vertex="1" parent="1">
          <mxGeometry x="160" y="620" width="120" height="40" as="geometry" />
        </mxCell>
        <mxCell id="Tg11ojRictkJ0Y5CGzH8-67" value="No" style="edgeStyle=orthogonalEdgeStyle;rounded=0;orthogonalLoop=1;jettySize=auto;html=1;" edge="1" parent="1" source="Tg11ojRictkJ0Y5CGzH8-53" target="Tg11ojRictkJ0Y5CGzH8-61">
          <mxGeometry relative="1" as="geometry" />
        </mxCell>
        <mxCell id="Tg11ojRictkJ0Y5CGzH8-75" value="Yes" style="edgeStyle=orthogonalEdgeStyle;rounded=0;orthogonalLoop=1;jettySize=auto;html=1;" edge="1" parent="1" source="Tg11ojRictkJ0Y5CGzH8-53" target="Tg11ojRictkJ0Y5CGzH8-74">
          <mxGeometry relative="1" as="geometry" />
        </mxCell>
        <mxCell id="Tg11ojRictkJ0Y5CGzH8-53" value="Length of optimal portfolio equal to 0?" style="rhombus;whiteSpace=wrap;html=1;" vertex="1" parent="1">
          <mxGeometry x="480" y="240" width="120" height="80" as="geometry" />
        </mxCell>
        <mxCell id="Tg11ojRictkJ0Y5CGzH8-68" value="" style="edgeStyle=orthogonalEdgeStyle;rounded=0;orthogonalLoop=1;jettySize=auto;html=1;" edge="1" parent="1" source="Tg11ojRictkJ0Y5CGzH8-61" target="Tg11ojRictkJ0Y5CGzH8-66">
          <mxGeometry relative="1" as="geometry" />
        </mxCell>
        <mxCell id="Tg11ojRictkJ0Y5CGzH8-61" value="Buy stock at count" style="rounded=0;whiteSpace=wrap;html=1;" vertex="1" parent="1">
          <mxGeometry x="480" y="360" width="120" height="40" as="geometry" />
        </mxCell>
        <mxCell id="Tg11ojRictkJ0Y5CGzH8-65" style="edgeStyle=orthogonalEdgeStyle;rounded=0;orthogonalLoop=1;jettySize=auto;html=1;exitX=0.5;exitY=0;exitDx=0;exitDy=0;entryX=0.5;entryY=0;entryDx=0;entryDy=0;" edge="1" parent="1" source="Tg11ojRictkJ0Y5CGzH8-62" target="Tg11ojRictkJ0Y5CGzH8-3">
          <mxGeometry relative="1" as="geometry" />
        </mxCell>
        <mxCell id="Tg11ojRictkJ0Y5CGzH8-62" value="Add transaction to transactions table" style="rounded=0;whiteSpace=wrap;html=1;" vertex="1" parent="1">
          <mxGeometry y="380" width="120" height="40" as="geometry" />
        </mxCell>
        <mxCell id="Tg11ojRictkJ0Y5CGzH8-71" value="" style="edgeStyle=orthogonalEdgeStyle;rounded=0;orthogonalLoop=1;jettySize=auto;html=1;" edge="1" parent="1" source="Tg11ojRictkJ0Y5CGzH8-66" target="Tg11ojRictkJ0Y5CGzH8-70">
          <mxGeometry relative="1" as="geometry" />
        </mxCell>
        <mxCell id="Tg11ojRictkJ0Y5CGzH8-66" value="Deque stock from optimal portfolio" style="rounded=0;whiteSpace=wrap;html=1;" vertex="1" parent="1">
          <mxGeometry x="480" y="440" width="120" height="40" as="geometry" />
        </mxCell>
        <mxCell id="Tg11ojRictkJ0Y5CGzH8-72" style="edgeStyle=orthogonalEdgeStyle;rounded=0;orthogonalLoop=1;jettySize=auto;html=1;exitX=0;exitY=0.5;exitDx=0;exitDy=0;entryX=0;entryY=0.5;entryDx=0;entryDy=0;" edge="1" parent="1" source="Tg11ojRictkJ0Y5CGzH8-70" target="Tg11ojRictkJ0Y5CGzH8-53">
          <mxGeometry relative="1" as="geometry" />
        </mxCell>
        <mxCell id="Tg11ojRictkJ0Y5CGzH8-70" value="Add transaction to transaction table" style="rounded=0;whiteSpace=wrap;html=1;" vertex="1" parent="1">
          <mxGeometry x="480" y="520" width="120" height="40" as="geometry" />
        </mxCell>
        <mxCell id="Kai6CfemOAGIGBJN0Eag-2" value="" style="edgeStyle=orthogonalEdgeStyle;rounded=0;orthogonalLoop=1;jettySize=auto;html=1;" edge="1" parent="1" source="Tg11ojRictkJ0Y5CGzH8-74" target="Kai6CfemOAGIGBJN0Eag-1">
          <mxGeometry relative="1" as="geometry" />
        </mxCell>
        <mxCell id="Tg11ojRictkJ0Y5CGzH8-74" value="Update portfolio in database" style="rounded=0;whiteSpace=wrap;html=1;" vertex="1" parent="1">
          <mxGeometry x="640" y="260" width="120" height="40" as="geometry" />
        </mxCell>
        <mxCell id="Kai6CfemOAGIGBJN0Eag-1" value="end" style="rounded=1;whiteSpace=wrap;html=1;" vertex="1" parent="1">
          <mxGeometry x="640" y="340" width="120" height="40" as="geometry" />
        </mxCell>
      </root>
    </mxGraphModel>
  </diagram>
</mxfile>
